%TF.GenerationSoftware,KiCad,Pcbnew,10.0.5-10.0.5~ubuntu24.04.1*%
%TF.CreationDate,2026-09-03T01:15:05-06:00*%
%TF.ProjectId,usb_c_uart_debugger,7573625f-635f-4756-9172-745f64656275,rev?*%
%TF.SameCoordinates,Original*%
%TF.FileFunction,Legend,Top*%
%TF.FilePolarity,Positive*%
%FSLAX46Y46*%
G04 Gerber Fmt 4.6, Leading zero omitted, Abs format (unit mm)*
G04 Created by KiCad (PCBNEW 10.0.5-10.0.5~ubuntu24.04.1) date 2026-09-03 01:15:05*
%MOMM*%
%LPD*%
G01*
G04 APERTURE LIST*
G04 Aperture macros list*
%AMRoundRect*
0 Rectangle with rounded corners*
0 $1 Rounding radius*
0 $2 $3 $4 $5 $6 $7 $8 $9 X,Y pos of 4 corners*
0 Add a 4 corners polygon primitive as box body*
4,1,4,$2,$3,$4,$5,$6,$7,$8,$9,$2,$3,0*
0 Add four circle primitives for the rounded corners*
1,1,$1+$1,$2,$3*
1,1,$1+$1,$4,$5*
1,1,$1+$1,$6,$7*
1,1,$1+$1,$8,$9*
0 Add four rect primitives between the rounded corners*
20,1,$1+$1,$2,$3,$4,$5,0*
20,1,$1+$1,$4,$5,$6,$7,0*
20,1,$1+$1,$6,$7,$8,$9,0*
20,1,$1+$1,$8,$9,$2,$3,0*%
%AMFreePoly0*
4,1,9,3.862500,-0.866500,0.737500,-0.866500,0.737500,-0.450000,-0.737500,-0.450000,-0.737500,0.450000,0.737500,0.450000,0.737500,0.866500,3.862500,0.866500,3.862500,-0.866500,3.862500,-0.866500,$1*%
G04 Aperture macros list end*
%ADD10C,0.150000*%
%ADD11C,0.120000*%
%ADD12RoundRect,0.225000X0.250000X-0.225000X0.250000X0.225000X-0.250000X0.225000X-0.250000X-0.225000X0*%
%ADD13RoundRect,0.200000X-0.200000X-0.275000X0.200000X-0.275000X0.200000X0.275000X-0.200000X0.275000X0*%
%ADD14RoundRect,0.225000X-0.225000X-0.250000X0.225000X-0.250000X0.225000X0.250000X-0.225000X0.250000X0*%
%ADD15RoundRect,0.150000X-0.587500X-0.150000X0.587500X-0.150000X0.587500X0.150000X-0.587500X0.150000X0*%
%ADD16C,1.000000*%
%ADD17RoundRect,0.200000X0.275000X-0.200000X0.275000X0.200000X-0.275000X0.200000X-0.275000X-0.200000X0*%
%ADD18R,1.700000X1.700000*%
%ADD19C,1.700000*%
%ADD20RoundRect,0.150000X0.150000X-0.512500X0.150000X0.512500X-0.150000X0.512500X-0.150000X-0.512500X0*%
%ADD21RoundRect,0.062500X0.062500X-0.387500X0.062500X0.387500X-0.062500X0.387500X-0.062500X-0.387500X0*%
%ADD22RoundRect,0.062500X0.387500X-0.062500X0.387500X0.062500X-0.387500X0.062500X-0.387500X-0.062500X0*%
%ADD23R,2.900000X2.900000*%
%ADD24RoundRect,0.225000X0.425000X0.225000X-0.425000X0.225000X-0.425000X-0.225000X0.425000X-0.225000X0*%
%ADD25FreePoly0,180.000000*%
%ADD26C,0.650000*%
%ADD27RoundRect,0.150000X-0.150000X-0.575000X0.150000X-0.575000X0.150000X0.575000X-0.150000X0.575000X0*%
%ADD28RoundRect,0.075000X-0.075000X-0.650000X0.075000X-0.650000X0.075000X0.650000X-0.075000X0.650000X0*%
%ADD29O,1.000000X2.100000*%
%ADD30O,1.000000X1.600000*%
%ADD31RoundRect,0.200000X0.200000X0.275000X-0.200000X0.275000X-0.200000X-0.275000X0.200000X-0.275000X0*%
G04 APERTURE END LIST*
D10*
X32178571Y-38962295D02*
X31721428Y-38962295D01*
X31950000Y-38962295D02*
X31950000Y-38162295D01*
X31950000Y-38162295D02*
X31873809Y-38276580D01*
X31873809Y-38276580D02*
X31797619Y-38352771D01*
X31797619Y-38352771D02*
X31721428Y-38390866D01*
X31590476Y-43100390D02*
X31514286Y-43062295D01*
X31514286Y-43062295D02*
X31400000Y-43062295D01*
X31400000Y-43062295D02*
X31285714Y-43100390D01*
X31285714Y-43100390D02*
X31209524Y-43176580D01*
X31209524Y-43176580D02*
X31171429Y-43252771D01*
X31171429Y-43252771D02*
X31133333Y-43405152D01*
X31133333Y-43405152D02*
X31133333Y-43519438D01*
X31133333Y-43519438D02*
X31171429Y-43671819D01*
X31171429Y-43671819D02*
X31209524Y-43748009D01*
X31209524Y-43748009D02*
X31285714Y-43824200D01*
X31285714Y-43824200D02*
X31400000Y-43862295D01*
X31400000Y-43862295D02*
X31476191Y-43862295D01*
X31476191Y-43862295D02*
X31590476Y-43824200D01*
X31590476Y-43824200D02*
X31628572Y-43786104D01*
X31628572Y-43786104D02*
X31628572Y-43519438D01*
X31628572Y-43519438D02*
X31476191Y-43519438D01*
X31971429Y-43862295D02*
X31971429Y-43062295D01*
X31971429Y-43062295D02*
X32428572Y-43862295D01*
X32428572Y-43862295D02*
X32428572Y-43062295D01*
X32809524Y-43862295D02*
X32809524Y-43062295D01*
X32809524Y-43062295D02*
X33000000Y-43062295D01*
X33000000Y-43062295D02*
X33114286Y-43100390D01*
X33114286Y-43100390D02*
X33190476Y-43176580D01*
X33190476Y-43176580D02*
X33228571Y-43252771D01*
X33228571Y-43252771D02*
X33266667Y-43405152D01*
X33266667Y-43405152D02*
X33266667Y-43519438D01*
X33266667Y-43519438D02*
X33228571Y-43671819D01*
X33228571Y-43671819D02*
X33190476Y-43748009D01*
X33190476Y-43748009D02*
X33114286Y-43824200D01*
X33114286Y-43824200D02*
X33000000Y-43862295D01*
X33000000Y-43862295D02*
X32809524Y-43862295D01*
X33040476Y-38200390D02*
X32964286Y-38162295D01*
X32964286Y-38162295D02*
X32850000Y-38162295D01*
X32850000Y-38162295D02*
X32735714Y-38200390D01*
X32735714Y-38200390D02*
X32659524Y-38276580D01*
X32659524Y-38276580D02*
X32621429Y-38352771D01*
X32621429Y-38352771D02*
X32583333Y-38505152D01*
X32583333Y-38505152D02*
X32583333Y-38619438D01*
X32583333Y-38619438D02*
X32621429Y-38771819D01*
X32621429Y-38771819D02*
X32659524Y-38848009D01*
X32659524Y-38848009D02*
X32735714Y-38924200D01*
X32735714Y-38924200D02*
X32850000Y-38962295D01*
X32850000Y-38962295D02*
X32926191Y-38962295D01*
X32926191Y-38962295D02*
X33040476Y-38924200D01*
X33040476Y-38924200D02*
X33078572Y-38886104D01*
X33078572Y-38886104D02*
X33078572Y-38619438D01*
X33078572Y-38619438D02*
X32926191Y-38619438D01*
X33421429Y-38962295D02*
X33421429Y-38162295D01*
X33421429Y-38162295D02*
X33878572Y-38962295D01*
X33878572Y-38962295D02*
X33878572Y-38162295D01*
X34259524Y-38962295D02*
X34259524Y-38162295D01*
X34259524Y-38162295D02*
X34450000Y-38162295D01*
X34450000Y-38162295D02*
X34564286Y-38200390D01*
X34564286Y-38200390D02*
X34640476Y-38276580D01*
X34640476Y-38276580D02*
X34678571Y-38352771D01*
X34678571Y-38352771D02*
X34716667Y-38505152D01*
X34716667Y-38505152D02*
X34716667Y-38619438D01*
X34716667Y-38619438D02*
X34678571Y-38771819D01*
X34678571Y-38771819D02*
X34640476Y-38848009D01*
X34640476Y-38848009D02*
X34564286Y-38924200D01*
X34564286Y-38924200D02*
X34450000Y-38962295D01*
X34450000Y-38962295D02*
X34259524Y-38962295D01*
X33133333Y-63162295D02*
X33400000Y-63962295D01*
X33400000Y-63962295D02*
X33666666Y-63162295D01*
X34199999Y-63543247D02*
X34314285Y-63581342D01*
X34314285Y-63581342D02*
X34352380Y-63619438D01*
X34352380Y-63619438D02*
X34390476Y-63695628D01*
X34390476Y-63695628D02*
X34390476Y-63809914D01*
X34390476Y-63809914D02*
X34352380Y-63886104D01*
X34352380Y-63886104D02*
X34314285Y-63924200D01*
X34314285Y-63924200D02*
X34238095Y-63962295D01*
X34238095Y-63962295D02*
X33933333Y-63962295D01*
X33933333Y-63962295D02*
X33933333Y-63162295D01*
X33933333Y-63162295D02*
X34199999Y-63162295D01*
X34199999Y-63162295D02*
X34276190Y-63200390D01*
X34276190Y-63200390D02*
X34314285Y-63238485D01*
X34314285Y-63238485D02*
X34352380Y-63314676D01*
X34352380Y-63314676D02*
X34352380Y-63390866D01*
X34352380Y-63390866D02*
X34314285Y-63467057D01*
X34314285Y-63467057D02*
X34276190Y-63505152D01*
X34276190Y-63505152D02*
X34199999Y-63543247D01*
X34199999Y-63543247D02*
X33933333Y-63543247D01*
X34733333Y-63162295D02*
X34733333Y-63809914D01*
X34733333Y-63809914D02*
X34771428Y-63886104D01*
X34771428Y-63886104D02*
X34809523Y-63924200D01*
X34809523Y-63924200D02*
X34885714Y-63962295D01*
X34885714Y-63962295D02*
X35038095Y-63962295D01*
X35038095Y-63962295D02*
X35114285Y-63924200D01*
X35114285Y-63924200D02*
X35152380Y-63886104D01*
X35152380Y-63886104D02*
X35190476Y-63809914D01*
X35190476Y-63809914D02*
X35190476Y-63162295D01*
X35533332Y-63924200D02*
X35647618Y-63962295D01*
X35647618Y-63962295D02*
X35838094Y-63962295D01*
X35838094Y-63962295D02*
X35914285Y-63924200D01*
X35914285Y-63924200D02*
X35952380Y-63886104D01*
X35952380Y-63886104D02*
X35990475Y-63809914D01*
X35990475Y-63809914D02*
X35990475Y-63733723D01*
X35990475Y-63733723D02*
X35952380Y-63657533D01*
X35952380Y-63657533D02*
X35914285Y-63619438D01*
X35914285Y-63619438D02*
X35838094Y-63581342D01*
X35838094Y-63581342D02*
X35685713Y-63543247D01*
X35685713Y-63543247D02*
X35609523Y-63505152D01*
X35609523Y-63505152D02*
X35571428Y-63467057D01*
X35571428Y-63467057D02*
X35533332Y-63390866D01*
X35533332Y-63390866D02*
X35533332Y-63314676D01*
X35533332Y-63314676D02*
X35571428Y-63238485D01*
X35571428Y-63238485D02*
X35609523Y-63200390D01*
X35609523Y-63200390D02*
X35685713Y-63162295D01*
X35685713Y-63162295D02*
X35876190Y-63162295D01*
X35876190Y-63162295D02*
X35990475Y-63200390D01*
X35751905Y-38886104D02*
X35713809Y-38924200D01*
X35713809Y-38924200D02*
X35599524Y-38962295D01*
X35599524Y-38962295D02*
X35523333Y-38962295D01*
X35523333Y-38962295D02*
X35409047Y-38924200D01*
X35409047Y-38924200D02*
X35332857Y-38848009D01*
X35332857Y-38848009D02*
X35294762Y-38771819D01*
X35294762Y-38771819D02*
X35256666Y-38619438D01*
X35256666Y-38619438D02*
X35256666Y-38505152D01*
X35256666Y-38505152D02*
X35294762Y-38352771D01*
X35294762Y-38352771D02*
X35332857Y-38276580D01*
X35332857Y-38276580D02*
X35409047Y-38200390D01*
X35409047Y-38200390D02*
X35523333Y-38162295D01*
X35523333Y-38162295D02*
X35599524Y-38162295D01*
X35599524Y-38162295D02*
X35713809Y-38200390D01*
X35713809Y-38200390D02*
X35751905Y-38238485D01*
X35980476Y-38162295D02*
X36437619Y-38162295D01*
X36209047Y-38962295D02*
X36209047Y-38162295D01*
X36666190Y-38924200D02*
X36780476Y-38962295D01*
X36780476Y-38962295D02*
X36970952Y-38962295D01*
X36970952Y-38962295D02*
X37047143Y-38924200D01*
X37047143Y-38924200D02*
X37085238Y-38886104D01*
X37085238Y-38886104D02*
X37123333Y-38809914D01*
X37123333Y-38809914D02*
X37123333Y-38733723D01*
X37123333Y-38733723D02*
X37085238Y-38657533D01*
X37085238Y-38657533D02*
X37047143Y-38619438D01*
X37047143Y-38619438D02*
X36970952Y-38581342D01*
X36970952Y-38581342D02*
X36818571Y-38543247D01*
X36818571Y-38543247D02*
X36742381Y-38505152D01*
X36742381Y-38505152D02*
X36704286Y-38467057D01*
X36704286Y-38467057D02*
X36666190Y-38390866D01*
X36666190Y-38390866D02*
X36666190Y-38314676D01*
X36666190Y-38314676D02*
X36704286Y-38238485D01*
X36704286Y-38238485D02*
X36742381Y-38200390D01*
X36742381Y-38200390D02*
X36818571Y-38162295D01*
X36818571Y-38162295D02*
X37009048Y-38162295D01*
X37009048Y-38162295D02*
X37123333Y-38200390D01*
X37995238Y-62162295D02*
X37995238Y-61362295D01*
X37995238Y-61362295D02*
X38185714Y-61362295D01*
X38185714Y-61362295D02*
X38300000Y-61400390D01*
X38300000Y-61400390D02*
X38376190Y-61476580D01*
X38376190Y-61476580D02*
X38414285Y-61552771D01*
X38414285Y-61552771D02*
X38452381Y-61705152D01*
X38452381Y-61705152D02*
X38452381Y-61819438D01*
X38452381Y-61819438D02*
X38414285Y-61971819D01*
X38414285Y-61971819D02*
X38376190Y-62048009D01*
X38376190Y-62048009D02*
X38300000Y-62124200D01*
X38300000Y-62124200D02*
X38185714Y-62162295D01*
X38185714Y-62162295D02*
X37995238Y-62162295D01*
X38795238Y-61857533D02*
X39404762Y-61857533D01*
X39100000Y-62162295D02*
X39100000Y-61552771D01*
X37739523Y-38162295D02*
X38234761Y-38162295D01*
X38234761Y-38162295D02*
X37968095Y-38467057D01*
X37968095Y-38467057D02*
X38082380Y-38467057D01*
X38082380Y-38467057D02*
X38158571Y-38505152D01*
X38158571Y-38505152D02*
X38196666Y-38543247D01*
X38196666Y-38543247D02*
X38234761Y-38619438D01*
X38234761Y-38619438D02*
X38234761Y-38809914D01*
X38234761Y-38809914D02*
X38196666Y-38886104D01*
X38196666Y-38886104D02*
X38158571Y-38924200D01*
X38158571Y-38924200D02*
X38082380Y-38962295D01*
X38082380Y-38962295D02*
X37853809Y-38962295D01*
X37853809Y-38962295D02*
X37777618Y-38924200D01*
X37777618Y-38924200D02*
X37739523Y-38886104D01*
X38463333Y-38162295D02*
X38730000Y-38962295D01*
X38730000Y-38962295D02*
X38996666Y-38162295D01*
X39187142Y-38162295D02*
X39682380Y-38162295D01*
X39682380Y-38162295D02*
X39415714Y-38467057D01*
X39415714Y-38467057D02*
X39529999Y-38467057D01*
X39529999Y-38467057D02*
X39606190Y-38505152D01*
X39606190Y-38505152D02*
X39644285Y-38543247D01*
X39644285Y-38543247D02*
X39682380Y-38619438D01*
X39682380Y-38619438D02*
X39682380Y-38809914D01*
X39682380Y-38809914D02*
X39644285Y-38886104D01*
X39644285Y-38886104D02*
X39606190Y-38924200D01*
X39606190Y-38924200D02*
X39529999Y-38962295D01*
X39529999Y-38962295D02*
X39301428Y-38962295D01*
X39301428Y-38962295D02*
X39225237Y-38924200D01*
X39225237Y-38924200D02*
X39187142Y-38886104D01*
X33828570Y-35762295D02*
X34323808Y-35762295D01*
X34323808Y-35762295D02*
X34057142Y-36067057D01*
X34057142Y-36067057D02*
X34171427Y-36067057D01*
X34171427Y-36067057D02*
X34247618Y-36105152D01*
X34247618Y-36105152D02*
X34285713Y-36143247D01*
X34285713Y-36143247D02*
X34323808Y-36219438D01*
X34323808Y-36219438D02*
X34323808Y-36409914D01*
X34323808Y-36409914D02*
X34285713Y-36486104D01*
X34285713Y-36486104D02*
X34247618Y-36524200D01*
X34247618Y-36524200D02*
X34171427Y-36562295D01*
X34171427Y-36562295D02*
X33942856Y-36562295D01*
X33942856Y-36562295D02*
X33866665Y-36524200D01*
X33866665Y-36524200D02*
X33828570Y-36486104D01*
X34552380Y-35762295D02*
X34819047Y-36562295D01*
X34819047Y-36562295D02*
X35085713Y-35762295D01*
X35276189Y-35762295D02*
X35771427Y-35762295D01*
X35771427Y-35762295D02*
X35504761Y-36067057D01*
X35504761Y-36067057D02*
X35619046Y-36067057D01*
X35619046Y-36067057D02*
X35695237Y-36105152D01*
X35695237Y-36105152D02*
X35733332Y-36143247D01*
X35733332Y-36143247D02*
X35771427Y-36219438D01*
X35771427Y-36219438D02*
X35771427Y-36409914D01*
X35771427Y-36409914D02*
X35733332Y-36486104D01*
X35733332Y-36486104D02*
X35695237Y-36524200D01*
X35695237Y-36524200D02*
X35619046Y-36562295D01*
X35619046Y-36562295D02*
X35390475Y-36562295D01*
X35390475Y-36562295D02*
X35314284Y-36524200D01*
X35314284Y-36524200D02*
X35276189Y-36486104D01*
X36876190Y-35762295D02*
X37028571Y-35762295D01*
X37028571Y-35762295D02*
X37104761Y-35800390D01*
X37104761Y-35800390D02*
X37180952Y-35876580D01*
X37180952Y-35876580D02*
X37219047Y-36028961D01*
X37219047Y-36028961D02*
X37219047Y-36295628D01*
X37219047Y-36295628D02*
X37180952Y-36448009D01*
X37180952Y-36448009D02*
X37104761Y-36524200D01*
X37104761Y-36524200D02*
X37028571Y-36562295D01*
X37028571Y-36562295D02*
X36876190Y-36562295D01*
X36876190Y-36562295D02*
X36799999Y-36524200D01*
X36799999Y-36524200D02*
X36723809Y-36448009D01*
X36723809Y-36448009D02*
X36685713Y-36295628D01*
X36685713Y-36295628D02*
X36685713Y-36028961D01*
X36685713Y-36028961D02*
X36723809Y-35876580D01*
X36723809Y-35876580D02*
X36799999Y-35800390D01*
X36799999Y-35800390D02*
X36876190Y-35762295D01*
X37561904Y-35762295D02*
X37561904Y-36409914D01*
X37561904Y-36409914D02*
X37599999Y-36486104D01*
X37599999Y-36486104D02*
X37638094Y-36524200D01*
X37638094Y-36524200D02*
X37714285Y-36562295D01*
X37714285Y-36562295D02*
X37866666Y-36562295D01*
X37866666Y-36562295D02*
X37942856Y-36524200D01*
X37942856Y-36524200D02*
X37980951Y-36486104D01*
X37980951Y-36486104D02*
X38019047Y-36409914D01*
X38019047Y-36409914D02*
X38019047Y-35762295D01*
X38285713Y-35762295D02*
X38742856Y-35762295D01*
X38514284Y-36562295D02*
X38514284Y-35762295D01*
X39961904Y-36028961D02*
X39961904Y-36562295D01*
X39771428Y-35724200D02*
X39580951Y-36295628D01*
X39580951Y-36295628D02*
X40076190Y-36295628D01*
X40533333Y-35762295D02*
X40609523Y-35762295D01*
X40609523Y-35762295D02*
X40685714Y-35800390D01*
X40685714Y-35800390D02*
X40723809Y-35838485D01*
X40723809Y-35838485D02*
X40761904Y-35914676D01*
X40761904Y-35914676D02*
X40799999Y-36067057D01*
X40799999Y-36067057D02*
X40799999Y-36257533D01*
X40799999Y-36257533D02*
X40761904Y-36409914D01*
X40761904Y-36409914D02*
X40723809Y-36486104D01*
X40723809Y-36486104D02*
X40685714Y-36524200D01*
X40685714Y-36524200D02*
X40609523Y-36562295D01*
X40609523Y-36562295D02*
X40533333Y-36562295D01*
X40533333Y-36562295D02*
X40457142Y-36524200D01*
X40457142Y-36524200D02*
X40419047Y-36486104D01*
X40419047Y-36486104D02*
X40380952Y-36409914D01*
X40380952Y-36409914D02*
X40342856Y-36257533D01*
X40342856Y-36257533D02*
X40342856Y-36067057D01*
X40342856Y-36067057D02*
X40380952Y-35914676D01*
X40380952Y-35914676D02*
X40419047Y-35838485D01*
X40419047Y-35838485D02*
X40457142Y-35800390D01*
X40457142Y-35800390D02*
X40533333Y-35762295D01*
X41752381Y-36562295D02*
X41752381Y-36028961D01*
X41752381Y-36105152D02*
X41790476Y-36067057D01*
X41790476Y-36067057D02*
X41866666Y-36028961D01*
X41866666Y-36028961D02*
X41980952Y-36028961D01*
X41980952Y-36028961D02*
X42057143Y-36067057D01*
X42057143Y-36067057D02*
X42095238Y-36143247D01*
X42095238Y-36143247D02*
X42095238Y-36562295D01*
X42095238Y-36143247D02*
X42133333Y-36067057D01*
X42133333Y-36067057D02*
X42209524Y-36028961D01*
X42209524Y-36028961D02*
X42323809Y-36028961D01*
X42323809Y-36028961D02*
X42400000Y-36067057D01*
X42400000Y-36067057D02*
X42438095Y-36143247D01*
X42438095Y-36143247D02*
X42438095Y-36562295D01*
X42780952Y-36333723D02*
X43161905Y-36333723D01*
X42704762Y-36562295D02*
X42971429Y-35762295D01*
X42971429Y-35762295D02*
X43238095Y-36562295D01*
X44114286Y-36562295D02*
X44114286Y-35762295D01*
X44114286Y-35762295D02*
X44380952Y-36333723D01*
X44380952Y-36333723D02*
X44647619Y-35762295D01*
X44647619Y-35762295D02*
X44647619Y-36562295D01*
X44990476Y-36333723D02*
X45371429Y-36333723D01*
X44914286Y-36562295D02*
X45180953Y-35762295D01*
X45180953Y-35762295D02*
X45447619Y-36562295D01*
X45638095Y-35762295D02*
X46171429Y-36562295D01*
X46171429Y-35762295D02*
X45638095Y-36562295D01*
X34647618Y-36962295D02*
X35104761Y-36962295D01*
X34876189Y-37762295D02*
X34876189Y-36962295D01*
X35295237Y-36962295D02*
X35828571Y-37762295D01*
X35828571Y-36962295D02*
X35295237Y-37762295D01*
X37200000Y-37762295D02*
X36933333Y-37381342D01*
X36742857Y-37762295D02*
X36742857Y-36962295D01*
X36742857Y-36962295D02*
X37047619Y-36962295D01*
X37047619Y-36962295D02*
X37123809Y-37000390D01*
X37123809Y-37000390D02*
X37161904Y-37038485D01*
X37161904Y-37038485D02*
X37200000Y-37114676D01*
X37200000Y-37114676D02*
X37200000Y-37228961D01*
X37200000Y-37228961D02*
X37161904Y-37305152D01*
X37161904Y-37305152D02*
X37123809Y-37343247D01*
X37123809Y-37343247D02*
X37047619Y-37381342D01*
X37047619Y-37381342D02*
X36742857Y-37381342D01*
X37466666Y-36962295D02*
X38000000Y-37762295D01*
X38000000Y-36962295D02*
X37466666Y-37762295D01*
X38914286Y-37343247D02*
X39523810Y-37343247D01*
X39523810Y-37571819D02*
X38914286Y-37571819D01*
X40476190Y-37533723D02*
X40857143Y-37533723D01*
X40400000Y-37762295D02*
X40666667Y-36962295D01*
X40666667Y-36962295D02*
X40933333Y-37762295D01*
X41200000Y-37762295D02*
X41200000Y-36962295D01*
X41200000Y-36962295D02*
X41390476Y-36962295D01*
X41390476Y-36962295D02*
X41504762Y-37000390D01*
X41504762Y-37000390D02*
X41580952Y-37076580D01*
X41580952Y-37076580D02*
X41619047Y-37152771D01*
X41619047Y-37152771D02*
X41657143Y-37305152D01*
X41657143Y-37305152D02*
X41657143Y-37419438D01*
X41657143Y-37419438D02*
X41619047Y-37571819D01*
X41619047Y-37571819D02*
X41580952Y-37648009D01*
X41580952Y-37648009D02*
X41504762Y-37724200D01*
X41504762Y-37724200D02*
X41390476Y-37762295D01*
X41390476Y-37762295D02*
X41200000Y-37762295D01*
X41961904Y-37533723D02*
X42342857Y-37533723D01*
X41885714Y-37762295D02*
X42152381Y-36962295D01*
X42152381Y-36962295D02*
X42419047Y-37762295D01*
X42685714Y-37762295D02*
X42685714Y-36962295D01*
X42685714Y-36962295D02*
X42990476Y-36962295D01*
X42990476Y-36962295D02*
X43066666Y-37000390D01*
X43066666Y-37000390D02*
X43104761Y-37038485D01*
X43104761Y-37038485D02*
X43142857Y-37114676D01*
X43142857Y-37114676D02*
X43142857Y-37228961D01*
X43142857Y-37228961D02*
X43104761Y-37305152D01*
X43104761Y-37305152D02*
X43066666Y-37343247D01*
X43066666Y-37343247D02*
X42990476Y-37381342D01*
X42990476Y-37381342D02*
X42685714Y-37381342D01*
X43371428Y-36962295D02*
X43828571Y-36962295D01*
X43599999Y-37762295D02*
X43599999Y-36962295D01*
X44095238Y-37343247D02*
X44361904Y-37343247D01*
X44476190Y-37762295D02*
X44095238Y-37762295D01*
X44095238Y-37762295D02*
X44095238Y-36962295D01*
X44095238Y-36962295D02*
X44476190Y-36962295D01*
X45276191Y-37762295D02*
X45009524Y-37381342D01*
X44819048Y-37762295D02*
X44819048Y-36962295D01*
X44819048Y-36962295D02*
X45123810Y-36962295D01*
X45123810Y-36962295D02*
X45200000Y-37000390D01*
X45200000Y-37000390D02*
X45238095Y-37038485D01*
X45238095Y-37038485D02*
X45276191Y-37114676D01*
X45276191Y-37114676D02*
X45276191Y-37228961D01*
X45276191Y-37228961D02*
X45238095Y-37305152D01*
X45238095Y-37305152D02*
X45200000Y-37343247D01*
X45200000Y-37343247D02*
X45123810Y-37381342D01*
X45123810Y-37381342D02*
X44819048Y-37381342D01*
X40260475Y-38162295D02*
X40717618Y-38162295D01*
X40489046Y-38962295D02*
X40489046Y-38162295D01*
X40908094Y-38162295D02*
X41441428Y-38962295D01*
X41441428Y-38162295D02*
X40908094Y-38962295D01*
X41746190Y-38962295D02*
X41746190Y-38162295D01*
X41746190Y-38162295D02*
X41936666Y-38162295D01*
X41936666Y-38162295D02*
X42050952Y-38200390D01*
X42050952Y-38200390D02*
X42127142Y-38276580D01*
X42127142Y-38276580D02*
X42165237Y-38352771D01*
X42165237Y-38352771D02*
X42203333Y-38505152D01*
X42203333Y-38505152D02*
X42203333Y-38619438D01*
X42203333Y-38619438D02*
X42165237Y-38771819D01*
X42165237Y-38771819D02*
X42127142Y-38848009D01*
X42127142Y-38848009D02*
X42050952Y-38924200D01*
X42050952Y-38924200D02*
X41936666Y-38962295D01*
X41936666Y-38962295D02*
X41746190Y-38962295D01*
X40595238Y-62162295D02*
X40595238Y-61362295D01*
X40595238Y-61362295D02*
X40785714Y-61362295D01*
X40785714Y-61362295D02*
X40900000Y-61400390D01*
X40900000Y-61400390D02*
X40976190Y-61476580D01*
X40976190Y-61476580D02*
X41014285Y-61552771D01*
X41014285Y-61552771D02*
X41052381Y-61705152D01*
X41052381Y-61705152D02*
X41052381Y-61819438D01*
X41052381Y-61819438D02*
X41014285Y-61971819D01*
X41014285Y-61971819D02*
X40976190Y-62048009D01*
X40976190Y-62048009D02*
X40900000Y-62124200D01*
X40900000Y-62124200D02*
X40785714Y-62162295D01*
X40785714Y-62162295D02*
X40595238Y-62162295D01*
X41395238Y-61857533D02*
X42004762Y-61857533D01*
X43276667Y-38962295D02*
X43010000Y-38581342D01*
X42819524Y-38962295D02*
X42819524Y-38162295D01*
X42819524Y-38162295D02*
X43124286Y-38162295D01*
X43124286Y-38162295D02*
X43200476Y-38200390D01*
X43200476Y-38200390D02*
X43238571Y-38238485D01*
X43238571Y-38238485D02*
X43276667Y-38314676D01*
X43276667Y-38314676D02*
X43276667Y-38428961D01*
X43276667Y-38428961D02*
X43238571Y-38505152D01*
X43238571Y-38505152D02*
X43200476Y-38543247D01*
X43200476Y-38543247D02*
X43124286Y-38581342D01*
X43124286Y-38581342D02*
X42819524Y-38581342D01*
X43543333Y-38162295D02*
X44076667Y-38962295D01*
X44076667Y-38162295D02*
X43543333Y-38962295D01*
X44381429Y-38962295D02*
X44381429Y-38162295D01*
X44381429Y-38162295D02*
X44571905Y-38162295D01*
X44571905Y-38162295D02*
X44686191Y-38200390D01*
X44686191Y-38200390D02*
X44762381Y-38276580D01*
X44762381Y-38276580D02*
X44800476Y-38352771D01*
X44800476Y-38352771D02*
X44838572Y-38505152D01*
X44838572Y-38505152D02*
X44838572Y-38619438D01*
X44838572Y-38619438D02*
X44800476Y-38771819D01*
X44800476Y-38771819D02*
X44762381Y-38848009D01*
X44762381Y-38848009D02*
X44686191Y-38924200D01*
X44686191Y-38924200D02*
X44571905Y-38962295D01*
X44571905Y-38962295D02*
X44381429Y-38962295D01*
X44190476Y-61057533D02*
X44800000Y-61057533D01*
X44495238Y-61362295D02*
X44495238Y-60752771D01*
X45104761Y-60562295D02*
X45599999Y-60562295D01*
X45599999Y-60562295D02*
X45333333Y-60867057D01*
X45333333Y-60867057D02*
X45447618Y-60867057D01*
X45447618Y-60867057D02*
X45523809Y-60905152D01*
X45523809Y-60905152D02*
X45561904Y-60943247D01*
X45561904Y-60943247D02*
X45599999Y-61019438D01*
X45599999Y-61019438D02*
X45599999Y-61209914D01*
X45599999Y-61209914D02*
X45561904Y-61286104D01*
X45561904Y-61286104D02*
X45523809Y-61324200D01*
X45523809Y-61324200D02*
X45447618Y-61362295D01*
X45447618Y-61362295D02*
X45219047Y-61362295D01*
X45219047Y-61362295D02*
X45142856Y-61324200D01*
X45142856Y-61324200D02*
X45104761Y-61286104D01*
X45828571Y-60562295D02*
X46095238Y-61362295D01*
X46095238Y-61362295D02*
X46361904Y-60562295D01*
X46552380Y-60562295D02*
X47047618Y-60562295D01*
X47047618Y-60562295D02*
X46780952Y-60867057D01*
X46780952Y-60867057D02*
X46895237Y-60867057D01*
X46895237Y-60867057D02*
X46971428Y-60905152D01*
X46971428Y-60905152D02*
X47009523Y-60943247D01*
X47009523Y-60943247D02*
X47047618Y-61019438D01*
X47047618Y-61019438D02*
X47047618Y-61209914D01*
X47047618Y-61209914D02*
X47009523Y-61286104D01*
X47009523Y-61286104D02*
X46971428Y-61324200D01*
X46971428Y-61324200D02*
X46895237Y-61362295D01*
X46895237Y-61362295D02*
X46666666Y-61362295D01*
X46666666Y-61362295D02*
X46590475Y-61324200D01*
X46590475Y-61324200D02*
X46552380Y-61286104D01*
X45911904Y-38962295D02*
X45645237Y-38581342D01*
X45454761Y-38962295D02*
X45454761Y-38162295D01*
X45454761Y-38162295D02*
X45759523Y-38162295D01*
X45759523Y-38162295D02*
X45835713Y-38200390D01*
X45835713Y-38200390D02*
X45873808Y-38238485D01*
X45873808Y-38238485D02*
X45911904Y-38314676D01*
X45911904Y-38314676D02*
X45911904Y-38428961D01*
X45911904Y-38428961D02*
X45873808Y-38505152D01*
X45873808Y-38505152D02*
X45835713Y-38543247D01*
X45835713Y-38543247D02*
X45759523Y-38581342D01*
X45759523Y-38581342D02*
X45454761Y-38581342D01*
X46140475Y-38162295D02*
X46597618Y-38162295D01*
X46369046Y-38962295D02*
X46369046Y-38162295D01*
X46826189Y-38924200D02*
X46940475Y-38962295D01*
X46940475Y-38962295D02*
X47130951Y-38962295D01*
X47130951Y-38962295D02*
X47207142Y-38924200D01*
X47207142Y-38924200D02*
X47245237Y-38886104D01*
X47245237Y-38886104D02*
X47283332Y-38809914D01*
X47283332Y-38809914D02*
X47283332Y-38733723D01*
X47283332Y-38733723D02*
X47245237Y-38657533D01*
X47245237Y-38657533D02*
X47207142Y-38619438D01*
X47207142Y-38619438D02*
X47130951Y-38581342D01*
X47130951Y-38581342D02*
X46978570Y-38543247D01*
X46978570Y-38543247D02*
X46902380Y-38505152D01*
X46902380Y-38505152D02*
X46864285Y-38467057D01*
X46864285Y-38467057D02*
X46826189Y-38390866D01*
X46826189Y-38390866D02*
X46826189Y-38314676D01*
X46826189Y-38314676D02*
X46864285Y-38238485D01*
X46864285Y-38238485D02*
X46902380Y-38200390D01*
X46902380Y-38200390D02*
X46978570Y-38162295D01*
X46978570Y-38162295D02*
X47169047Y-38162295D01*
X47169047Y-38162295D02*
X47283332Y-38200390D01*
%TO.C,C2*%
D11*
X42690000Y-60140580D02*
X42690000Y-59859420D01*
X43710000Y-60140580D02*
X43710000Y-59859420D01*
%TO.C,R2*%
X43362742Y-68677500D02*
X43837258Y-68677500D01*
X43362742Y-69722500D02*
X43837258Y-69722500D01*
%TO.C,C11*%
X34359420Y-47490000D02*
X34640580Y-47490000D01*
X34359420Y-48510000D02*
X34640580Y-48510000D01*
%TO.C,C4*%
X33059420Y-52290000D02*
X33340580Y-52290000D01*
X33059420Y-53310000D02*
X33340580Y-53310000D01*
%TO.C,Q1*%
X45240000Y-52440000D02*
X46760000Y-52440000D01*
X45240000Y-52490000D02*
X45240000Y-52440000D01*
X45240000Y-54390000D02*
X45240000Y-53610000D01*
X45240000Y-55560000D02*
X45240000Y-55510000D01*
X46760000Y-52440000D02*
X46760000Y-53440000D01*
X46760000Y-54560000D02*
X46760000Y-55560000D01*
X46760000Y-55560000D02*
X45240000Y-55560000D01*
X44700000Y-53620000D02*
X44940000Y-53950000D01*
X44460000Y-53950000D01*
X44700000Y-53620000D01*
G36*
X44940000Y-53950000D02*
G01*
X44460000Y-53950000D01*
X44700000Y-53620000D01*
X44940000Y-53950000D01*
G37*
%TO.C,TP3*%
X32900000Y-45400000D02*
G75*
G02*
X31500000Y-45400000I-700000J0D01*
G01*
X31500000Y-45400000D02*
G75*
G02*
X32900000Y-45400000I700000J0D01*
G01*
%TO.C,R11*%
X35667500Y-44737258D02*
X35667500Y-44262742D01*
X36712500Y-44737258D02*
X36712500Y-44262742D01*
%TO.C,C7*%
X47259420Y-62490000D02*
X47540580Y-62490000D01*
X47259420Y-63510000D02*
X47540580Y-63510000D01*
%TO.C,J2*%
X32270000Y-41880000D02*
X32270000Y-40500000D01*
X33650000Y-41880000D02*
X32270000Y-41880000D01*
X34920000Y-39120000D02*
X47730000Y-39120000D01*
X34920000Y-41880000D02*
X34920000Y-39120000D01*
X34920000Y-41880000D02*
X47730000Y-41880000D01*
X47730000Y-41880000D02*
X47730000Y-39120000D01*
%TO.C,D1*%
X38440000Y-63490000D02*
X38490000Y-63490000D01*
X38440000Y-65310000D02*
X38440000Y-63490000D01*
X38490000Y-65310000D02*
X38440000Y-65310000D01*
X41510000Y-63490000D02*
X41560000Y-63490000D01*
X41560000Y-63490000D02*
X41560000Y-65310000D01*
X41560000Y-65310000D02*
X41510000Y-65310000D01*
X38490000Y-65850000D02*
X38160000Y-66090000D01*
X38160000Y-65610000D01*
X38490000Y-65850000D01*
G36*
X38490000Y-65850000D02*
G01*
X38160000Y-66090000D01*
X38160000Y-65610000D01*
X38490000Y-65850000D01*
G37*
%TO.C,R3*%
X37762742Y-47477500D02*
X38237258Y-47477500D01*
X37762742Y-48522500D02*
X38237258Y-48522500D01*
%TO.C,C1*%
X33059420Y-66690000D02*
X33340580Y-66690000D01*
X33059420Y-67710000D02*
X33340580Y-67710000D01*
%TO.C,C10*%
X37859420Y-50190000D02*
X38140580Y-50190000D01*
X37859420Y-51210000D02*
X38140580Y-51210000D01*
%TO.C,U1*%
X36900000Y-58250000D02*
X36900000Y-57650000D01*
X36900000Y-58250000D02*
X37500000Y-58250000D01*
%TO.C,U2*%
X32240000Y-57240000D02*
X34960000Y-57240000D01*
X32240000Y-58220000D02*
X32240000Y-57240000D01*
X32240000Y-60980000D02*
X32240000Y-61960000D01*
X34820000Y-61960000D02*
X32240000Y-61960000D01*
X35370000Y-61810000D02*
X35610000Y-62140000D01*
X35130000Y-62140000D01*
X35370000Y-61810000D01*
G36*
X35610000Y-62140000D02*
G01*
X35130000Y-62140000D01*
X35370000Y-61810000D01*
X35610000Y-62140000D01*
G37*
%TO.C,J1*%
X35300000Y-73950000D02*
X35300000Y-75950000D01*
X35300000Y-77850000D02*
X35300000Y-79750000D01*
X35300000Y-79750000D02*
X44700000Y-79750000D01*
X44700000Y-73950000D02*
X44700000Y-75950000D01*
X44700000Y-77850000D02*
X44700000Y-79750000D01*
%TO.C,C8*%
X43859420Y-62490000D02*
X44140580Y-62490000D01*
X43859420Y-63510000D02*
X44140580Y-63510000D01*
%TO.C,TP2*%
X49300000Y-61000000D02*
G75*
G02*
X47900000Y-61000000I-700000J0D01*
G01*
X47900000Y-61000000D02*
G75*
G02*
X49300000Y-61000000I700000J0D01*
G01*
%TO.C,R1*%
X36637258Y-68677500D02*
X36162742Y-68677500D01*
X36637258Y-69722500D02*
X36162742Y-69722500D01*
%TO.C,C3*%
X33059420Y-54290000D02*
X33340580Y-54290000D01*
X33059420Y-55310000D02*
X33340580Y-55310000D01*
%TO.C,R8*%
X40747499Y-44737258D02*
X40747499Y-44262742D01*
X41792499Y-44737258D02*
X41792499Y-44262742D01*
%TO.C,Q2*%
X45240000Y-48640000D02*
X46760000Y-48640000D01*
X45240000Y-48690000D02*
X45240000Y-48640000D01*
X45240000Y-50590000D02*
X45240000Y-49810000D01*
X45240000Y-51760000D02*
X45240000Y-51710000D01*
X46760000Y-48640000D02*
X46760000Y-49640000D01*
X46760000Y-50760000D02*
X46760000Y-51760000D01*
X46760000Y-51760000D02*
X45240000Y-51760000D01*
X44700000Y-49820000D02*
X44940000Y-50150000D01*
X44460000Y-50150000D01*
X44700000Y-49820000D01*
G36*
X44940000Y-50150000D02*
G01*
X44460000Y-50150000D01*
X44700000Y-49820000D01*
X44940000Y-50150000D01*
G37*
%TO.C,C5*%
X46459420Y-56890000D02*
X46740580Y-56890000D01*
X46459420Y-57910000D02*
X46740580Y-57910000D01*
%TO.C,Q3*%
X41040000Y-48740000D02*
X42560000Y-48740000D01*
X41040000Y-48790000D02*
X41040000Y-48740000D01*
X41040000Y-50690000D02*
X41040000Y-49910000D01*
X41040000Y-51860000D02*
X41040000Y-51810000D01*
X42560000Y-48740000D02*
X42560000Y-49740000D01*
X42560000Y-50860000D02*
X42560000Y-51860000D01*
X42560000Y-51860000D02*
X41040000Y-51860000D01*
X40500000Y-49920000D02*
X40740000Y-50250000D01*
X40260000Y-50250000D01*
X40500000Y-49920000D01*
G36*
X40740000Y-50250000D02*
G01*
X40260000Y-50250000D01*
X40500000Y-49920000D01*
X40740000Y-50250000D01*
G37*
%TO.C,R6*%
X48477500Y-50437258D02*
X48477500Y-49962742D01*
X49522500Y-50437258D02*
X49522500Y-49962742D01*
%TO.C,C6*%
X45659420Y-58890000D02*
X45940580Y-58890000D01*
X45659420Y-59910000D02*
X45940580Y-59910000D01*
%TO.C,TP5*%
X42000000Y-60200000D02*
G75*
G02*
X40600000Y-60200000I-700000J0D01*
G01*
X40600000Y-60200000D02*
G75*
G02*
X42000000Y-60200000I700000J0D01*
G01*
%TO.C,R7*%
X48477500Y-54237258D02*
X48477500Y-53762742D01*
X49522500Y-54237258D02*
X49522500Y-53762742D01*
%TO.C,R10*%
X45827500Y-44737258D02*
X45827500Y-44262742D01*
X46872500Y-44737258D02*
X46872500Y-44262742D01*
%TO.C,R9*%
X43287500Y-44737258D02*
X43287500Y-44262742D01*
X44332500Y-44737258D02*
X44332500Y-44262742D01*
%TO.C,TP4*%
X39400000Y-60200000D02*
G75*
G02*
X38000000Y-60200000I-700000J0D01*
G01*
X38000000Y-60200000D02*
G75*
G02*
X39400000Y-60200000I700000J0D01*
G01*
%TO.C,R4*%
X46277500Y-69237258D02*
X46277500Y-68762742D01*
X47322500Y-69237258D02*
X47322500Y-68762742D01*
%TO.C,C9*%
X34359420Y-50190000D02*
X34640580Y-50190000D01*
X34359420Y-51210000D02*
X34640580Y-51210000D01*
%TO.C,TP1*%
X32900000Y-63600000D02*
G75*
G02*
X31500000Y-63600000I-700000J0D01*
G01*
X31500000Y-63600000D02*
G75*
G02*
X32900000Y-63600000I700000J0D01*
G01*
%TO.C,R5*%
X46277500Y-65837257D02*
X46277500Y-65362741D01*
X47322500Y-65837257D02*
X47322500Y-65362741D01*
%TD*%
%LPC*%
D12*
%TO.C,C2*%
X43200000Y-60775000D03*
X43200000Y-59225000D03*
%TD*%
D13*
%TO.C,R2*%
X42775000Y-69200000D03*
X44425000Y-69200000D03*
%TD*%
D14*
%TO.C,C11*%
X33725000Y-48000000D03*
X35275000Y-48000000D03*
%TD*%
%TO.C,C4*%
X32425000Y-52800000D03*
X33975000Y-52800000D03*
%TD*%
D15*
%TO.C,Q1*%
X45062500Y-53050000D03*
X45062500Y-54950000D03*
X46937500Y-54000000D03*
%TD*%
D16*
%TO.C,TP3*%
X32200000Y-45400000D03*
%TD*%
D17*
%TO.C,R11*%
X36190000Y-45325000D03*
X36190000Y-43675000D03*
%TD*%
D14*
%TO.C,C7*%
X46625000Y-63000000D03*
X48175000Y-63000000D03*
%TD*%
D18*
%TO.C,J2*%
X33650000Y-40500000D03*
D19*
X36190000Y-40500000D03*
X38730000Y-40500000D03*
X41270000Y-40500000D03*
X43810000Y-40500000D03*
X46350000Y-40500000D03*
%TD*%
D20*
%TO.C,D1*%
X39050000Y-65537500D03*
X40000000Y-65537500D03*
X40950000Y-65537500D03*
X40950000Y-63262500D03*
X40000000Y-63262500D03*
X39050000Y-63262500D03*
%TD*%
D13*
%TO.C,R3*%
X37175000Y-48000000D03*
X38825000Y-48000000D03*
%TD*%
D14*
%TO.C,C1*%
X32425000Y-67200000D03*
X33975000Y-67200000D03*
%TD*%
%TO.C,C10*%
X37225000Y-50700000D03*
X38775000Y-50700000D03*
%TD*%
D21*
%TO.C,U1*%
X38250000Y-57800000D03*
X38750000Y-57800000D03*
X39250000Y-57800000D03*
X39750000Y-57800000D03*
X40250000Y-57800000D03*
X40750000Y-57800000D03*
X41250000Y-57800000D03*
D22*
X42150000Y-56900000D03*
X42150000Y-56400000D03*
X42150000Y-55900000D03*
X42150000Y-55400000D03*
X42150000Y-54900000D03*
X42150000Y-54400000D03*
X42150000Y-53900000D03*
D21*
X41250000Y-53000000D03*
X40750000Y-53000000D03*
X40250000Y-53000000D03*
X39750000Y-53000000D03*
X39250000Y-53000000D03*
X38750000Y-53000000D03*
X38250000Y-53000000D03*
D22*
X37350000Y-53900000D03*
X37350000Y-54400000D03*
X37350000Y-54900000D03*
X37350000Y-55400000D03*
X37350000Y-55900000D03*
X37350000Y-56400000D03*
X37350000Y-56900000D03*
D23*
X39750000Y-55400000D03*
%TD*%
D24*
%TO.C,U2*%
X35550000Y-61100000D03*
D25*
X35462500Y-59600000D03*
D24*
X35550000Y-58100000D03*
%TD*%
D26*
%TO.C,J1*%
X37110000Y-73250000D03*
X42890000Y-73250000D03*
D27*
X36750000Y-71805000D03*
X37550000Y-71805000D03*
D28*
X38750000Y-71805000D03*
X39750000Y-71805000D03*
X40250000Y-71805000D03*
X41250000Y-71805000D03*
D27*
X42450000Y-71805000D03*
X43250000Y-71805000D03*
X43250000Y-71805000D03*
X42450000Y-71805000D03*
D28*
X41750000Y-71805000D03*
X40750000Y-71805000D03*
X39250000Y-71805000D03*
X38250000Y-71805000D03*
D27*
X37550000Y-71805000D03*
X36750000Y-71805000D03*
D29*
X35680000Y-72720000D03*
D30*
X35680000Y-76900000D03*
D29*
X44320000Y-72720000D03*
D30*
X44320000Y-76900000D03*
%TD*%
D14*
%TO.C,C8*%
X43225000Y-63000000D03*
X44775000Y-63000000D03*
%TD*%
D16*
%TO.C,TP2*%
X48600000Y-61000000D03*
%TD*%
D31*
%TO.C,R1*%
X37225000Y-69200000D03*
X35575000Y-69200000D03*
%TD*%
D14*
%TO.C,C3*%
X32425000Y-54800000D03*
X33975000Y-54800000D03*
%TD*%
D17*
%TO.C,R8*%
X41269999Y-45325000D03*
X41269999Y-43675000D03*
%TD*%
D15*
%TO.C,Q2*%
X45062500Y-49250000D03*
X45062500Y-51150000D03*
X46937500Y-50200000D03*
%TD*%
D14*
%TO.C,C5*%
X45825000Y-57400000D03*
X47375000Y-57400000D03*
%TD*%
D15*
%TO.C,Q3*%
X40862500Y-49350000D03*
X40862500Y-51250000D03*
X42737500Y-50300000D03*
%TD*%
D17*
%TO.C,R6*%
X49000000Y-51025000D03*
X49000000Y-49375000D03*
%TD*%
D14*
%TO.C,C6*%
X45025000Y-59400000D03*
X46575000Y-59400000D03*
%TD*%
D16*
%TO.C,TP5*%
X41300000Y-60200000D03*
%TD*%
D17*
%TO.C,R7*%
X49000000Y-54825000D03*
X49000000Y-53175000D03*
%TD*%
%TO.C,R10*%
X46350000Y-45325000D03*
X46350000Y-43675000D03*
%TD*%
%TO.C,R9*%
X43810000Y-45325000D03*
X43810000Y-43675000D03*
%TD*%
D16*
%TO.C,TP4*%
X38700000Y-60200000D03*
%TD*%
D17*
%TO.C,R4*%
X46800000Y-69825000D03*
X46800000Y-68175000D03*
%TD*%
D14*
%TO.C,C9*%
X33725000Y-50700000D03*
X35275000Y-50700000D03*
%TD*%
D16*
%TO.C,TP1*%
X32200000Y-63600000D03*
%TD*%
D17*
%TO.C,R5*%
X46800000Y-66424999D03*
X46800000Y-64774999D03*
%TD*%
%LPD*%
M02*
