M48
; DRILL file KiCad 10.0.5-10.0.5~ubuntu24.04.1 date 2026-09-03T01:59:04
; FORMAT={-:-/ absolute / metric / decimal}
; #@! TF.CreationDate,2026-09-03T01:59:04-06:00
; #@! TF.GenerationSoftware,Kicad,Pcbnew,10.0.5-10.0.5~ubuntu24.04.1
; #@! TF.FileFunction,Plated,1,2,PTH
FMAT,2
METRIC
; #@! TA.AperFunction,Plated,PTH,ViaDrill
T1C0.300
; #@! TA.AperFunction,Plated,PTH,ComponentDrill
T2C0.600
; #@! TA.AperFunction,Plated,PTH,ComponentDrill
T3C1.000
%
G90
G05
T1
X31.25Y-36.5
X31.25Y-40.0
X31.25Y-43.5
X31.25Y-47.0
X31.25Y-50.5
X31.25Y-54.0
X31.25Y-57.5
X31.25Y-61.0
X31.25Y-68.0
X31.25Y-71.5
X31.25Y-75.0
X31.25Y-78.5
X33.975Y-55.925
X34.3Y-61.8
X34.75Y-36.5
X34.75Y-43.5
X34.75Y-64.5
X34.75Y-75.0
X34.75Y-78.5
X34.8Y-56.4
X35.075Y-52.8
X35.075Y-67.2
X35.275Y-49.125
X35.4Y-54.6
X35.8Y-53.5
X35.9Y-56.2
X37.0Y-46.4
X37.4Y-45.1
X37.45Y-57.7
X38.25Y-36.5
X38.25Y-43.5
X38.25Y-75.0
X38.25Y-78.5
X38.5Y-69.0
X38.775Y-51.825
X39.65Y-68.1
X39.9Y-48.2
X40.0Y-62.0
X40.0Y-67.0
X40.1Y-46.7
X40.35Y-69.0
X41.5Y-68.1
X41.75Y-36.5
X41.75Y-47.0
X41.75Y-75.0
X41.75Y-78.5
X41.8Y-48.0
X42.05Y-53.1
X42.1Y-57.8
X42.3Y-49.3
X42.5Y-44.5
X43.2Y-58.1
X43.2Y-62.0
X43.2Y-70.4
X43.4Y-49.3
X43.6Y-55.0
X44.2Y-56.1
X44.2Y-58.4
X44.4Y-57.0
X44.8Y-54.0
X45.0Y-65.5
X45.25Y-36.5
X45.25Y-47.0
X45.25Y-61.0
X45.25Y-64.5
X45.25Y-68.0
X45.25Y-75.0
X45.25Y-78.5
X45.3Y-71.4
X45.6Y-61.9
X45.7Y-69.0
X46.5Y-49.2
X47.7Y-49.2
X47.8Y-52.2
X48.0Y-65.1
X48.3Y-55.9
X48.75Y-36.5
X48.75Y-40.0
X48.75Y-43.5
X48.75Y-47.0
X48.75Y-57.5
X48.75Y-64.5
X48.75Y-68.0
X48.75Y-71.5
X48.75Y-75.0
X48.75Y-78.5
T3
X33.65Y-40.5
X36.19Y-40.5
X38.73Y-40.5
X41.27Y-40.5
X43.81Y-40.5
X46.35Y-40.5
T2
X35.68Y-72.17G85X35.68Y-73.27
G05
X35.68Y-76.6G85X35.68Y-77.2
G05
X44.32Y-72.17G85X44.32Y-73.27
G05
X44.32Y-76.6G85X44.32Y-77.2
G05
M30
