%TF.GenerationSoftware,KiCad,Pcbnew,10.0.5-10.0.5~ubuntu24.04.1*%
%TF.CreationDate,2026-09-03T10:28:34-06:00*%
%TF.ProjectId,usb_c_uart_debugger,7573625f-635f-4756-9172-745f64656275,rev?*%
%TF.SameCoordinates,Original*%
%TF.FileFunction,Paste,Top*%
%TF.FilePolarity,Positive*%
%FSLAX46Y46*%
G04 Gerber Fmt 4.6, Leading zero omitted, Abs format (unit mm)*
G04 Created by KiCad (PCBNEW 10.0.5-10.0.5~ubuntu24.04.1) date 2026-09-03 10:28:34*
%MOMM*%
%LPD*%
G01*
G04 APERTURE LIST*
G04 Aperture macros list*
%AMRoundRect*
0 Rectangle with rounded corners*
0 $1 Rounding radius*
0 $2 $3 $4 $5 $6 $7 $8 $9 X,Y pos of 4 corners*
0 Add a 4 corners polygon primitive as box body*
4,1,4,$2,$3,$4,$5,$6,$7,$8,$9,$2,$3,0*
0 Add four circle primitives for the rounded corners*
1,1,$1+$1,$2,$3*
1,1,$1+$1,$4,$5*
1,1,$1+$1,$6,$7*
1,1,$1+$1,$8,$9*
0 Add four rect primitives between the rounded corners*
20,1,$1+$1,$2,$3,$4,$5,0*
20,1,$1+$1,$4,$5,$6,$7,0*
20,1,$1+$1,$6,$7,$8,$9,0*
20,1,$1+$1,$8,$9,$2,$3,0*%
%AMFreePoly0*
4,1,9,3.862500,-0.866500,0.737500,-0.866500,0.737500,-0.450000,-0.737500,-0.450000,-0.737500,0.450000,0.737500,0.450000,0.737500,0.866500,3.862500,0.866500,3.862500,-0.866500,3.862500,-0.866500,$1*%
G04 Aperture macros list end*
%ADD10RoundRect,0.225000X0.250000X-0.225000X0.250000X0.225000X-0.250000X0.225000X-0.250000X-0.225000X0*%
%ADD11RoundRect,0.200000X-0.200000X-0.275000X0.200000X-0.275000X0.200000X0.275000X-0.200000X0.275000X0*%
%ADD12RoundRect,0.225000X-0.225000X-0.250000X0.225000X-0.250000X0.225000X0.250000X-0.225000X0.250000X0*%
%ADD13RoundRect,0.150000X-0.587500X-0.150000X0.587500X-0.150000X0.587500X0.150000X-0.587500X0.150000X0*%
%ADD14RoundRect,0.200000X0.275000X-0.200000X0.275000X0.200000X-0.275000X0.200000X-0.275000X-0.200000X0*%
%ADD15RoundRect,0.150000X0.150000X-0.512500X0.150000X0.512500X-0.150000X0.512500X-0.150000X-0.512500X0*%
%ADD16R,1.200000X1.200000*%
%ADD17RoundRect,0.062500X0.062500X-0.387500X0.062500X0.387500X-0.062500X0.387500X-0.062500X-0.387500X0*%
%ADD18RoundRect,0.062500X0.387500X-0.062500X0.387500X0.062500X-0.387500X0.062500X-0.387500X-0.062500X0*%
%ADD19RoundRect,0.225000X0.425000X0.225000X-0.425000X0.225000X-0.425000X-0.225000X0.425000X-0.225000X0*%
%ADD20FreePoly0,180.000000*%
%ADD21RoundRect,0.150000X-0.150000X-0.575000X0.150000X-0.575000X0.150000X0.575000X-0.150000X0.575000X0*%
%ADD22RoundRect,0.075000X-0.075000X-0.650000X0.075000X-0.650000X0.075000X0.650000X-0.075000X0.650000X0*%
%ADD23RoundRect,0.200000X0.200000X0.275000X-0.200000X0.275000X-0.200000X-0.275000X0.200000X-0.275000X0*%
G04 APERTURE END LIST*
D10*
%TO.C,C2*%
X43200000Y-60775000D03*
X43200000Y-59225000D03*
%TD*%
D11*
%TO.C,R2*%
X42775000Y-69200000D03*
X44425000Y-69200000D03*
%TD*%
D12*
%TO.C,C11*%
X33725000Y-48000000D03*
X35275000Y-48000000D03*
%TD*%
%TO.C,C4*%
X32425000Y-52800000D03*
X33975000Y-52800000D03*
%TD*%
D13*
%TO.C,Q1*%
X45062500Y-53050000D03*
X45062500Y-54950000D03*
X46937500Y-54000000D03*
%TD*%
D14*
%TO.C,R11*%
X36190000Y-45325000D03*
X36190000Y-43675000D03*
%TD*%
D12*
%TO.C,C7*%
X46625000Y-63000000D03*
X48175000Y-63000000D03*
%TD*%
D15*
%TO.C,D1*%
X39050000Y-65537500D03*
X40000000Y-65537500D03*
X40950000Y-65537500D03*
X40950000Y-63262500D03*
X40000000Y-63262500D03*
X39050000Y-63262500D03*
%TD*%
D11*
%TO.C,R3*%
X37175000Y-48000000D03*
X38825000Y-48000000D03*
%TD*%
D12*
%TO.C,C1*%
X32425000Y-67200000D03*
X33975000Y-67200000D03*
%TD*%
%TO.C,C10*%
X37225000Y-50700000D03*
X38775000Y-50700000D03*
%TD*%
D16*
%TO.C,U1*%
X39000000Y-56150000D03*
X40500000Y-56150000D03*
X39000000Y-54650000D03*
X40500000Y-54650000D03*
D17*
X38250000Y-57800000D03*
X38750000Y-57800000D03*
X39250000Y-57800000D03*
X39750000Y-57800000D03*
X40250000Y-57800000D03*
X40750000Y-57800000D03*
X41250000Y-57800000D03*
D18*
X42150000Y-56900000D03*
X42150000Y-56400000D03*
X42150000Y-55900000D03*
X42150000Y-55400000D03*
X42150000Y-54900000D03*
X42150000Y-54400000D03*
X42150000Y-53900000D03*
D17*
X41250000Y-53000000D03*
X40750000Y-53000000D03*
X40250000Y-53000000D03*
X39750000Y-53000000D03*
X39250000Y-53000000D03*
X38750000Y-53000000D03*
X38250000Y-53000000D03*
D18*
X37350000Y-53900000D03*
X37350000Y-54400000D03*
X37350000Y-54900000D03*
X37350000Y-55400000D03*
X37350000Y-55900000D03*
X37350000Y-56400000D03*
X37350000Y-56900000D03*
%TD*%
D19*
%TO.C,U2*%
X35550000Y-61100000D03*
D20*
X35462500Y-59600000D03*
D19*
X35550000Y-58100000D03*
%TD*%
D21*
%TO.C,J1*%
X36750000Y-71805000D03*
X37550000Y-71805000D03*
D22*
X38750000Y-71805000D03*
X39750000Y-71805000D03*
X40250000Y-71805000D03*
X41250000Y-71805000D03*
D21*
X42450000Y-71805000D03*
X43250000Y-71805000D03*
X43250000Y-71805000D03*
X42450000Y-71805000D03*
D22*
X41750000Y-71805000D03*
X40750000Y-71805000D03*
X39250000Y-71805000D03*
X38250000Y-71805000D03*
D21*
X37550000Y-71805000D03*
X36750000Y-71805000D03*
%TD*%
D12*
%TO.C,C8*%
X43225000Y-63000000D03*
X44775000Y-63000000D03*
%TD*%
D23*
%TO.C,R1*%
X37225000Y-69200000D03*
X35575000Y-69200000D03*
%TD*%
D12*
%TO.C,C3*%
X32425000Y-54800000D03*
X33975000Y-54800000D03*
%TD*%
D14*
%TO.C,R8*%
X41269999Y-45325000D03*
X41269999Y-43675000D03*
%TD*%
D13*
%TO.C,Q2*%
X45062500Y-49250000D03*
X45062500Y-51150000D03*
X46937500Y-50200000D03*
%TD*%
D12*
%TO.C,C5*%
X45825000Y-57400000D03*
X47375000Y-57400000D03*
%TD*%
D13*
%TO.C,Q3*%
X40862500Y-49350000D03*
X40862500Y-51250000D03*
X42737500Y-50300000D03*
%TD*%
D14*
%TO.C,R6*%
X49000000Y-51025000D03*
X49000000Y-49375000D03*
%TD*%
D12*
%TO.C,C6*%
X45025000Y-59400000D03*
X46575000Y-59400000D03*
%TD*%
D14*
%TO.C,R7*%
X49000000Y-54825000D03*
X49000000Y-53175000D03*
%TD*%
%TO.C,R10*%
X46350000Y-45325000D03*
X46350000Y-43675000D03*
%TD*%
%TO.C,R9*%
X43810000Y-45325000D03*
X43810000Y-43675000D03*
%TD*%
%TO.C,R4*%
X46800000Y-69825000D03*
X46800000Y-68175000D03*
%TD*%
D12*
%TO.C,C9*%
X33725000Y-50700000D03*
X35275000Y-50700000D03*
%TD*%
D14*
%TO.C,R5*%
X46800000Y-66424999D03*
X46800000Y-64774999D03*
%TD*%
M02*
